# xmcd
#
# Track frame offsets: 
#        150
#        17921
#        32703
#        58665
#        82575
#        102585
#        122931
#        139239
#        167791
#        187947
#        208401
#        236433
#        250711
#        271338
#        286668
#        305106
#        324293
#
# Disc length: 4788 seconds
#
# Revision: 0
# Processed by: cddbd v1.5.2PL0 Copyright (c) Steve Scherf et al.
# Submitted via: ExactAudioCopy v1.3
#
DISCID=ef12b211
DTITLE=Various Artist - Akella Presents - vol.167 - Blues-Rock  CD1
DYEAR=2018
DGENRE=Blues
TTITLE0=Wilko Johnson - Take It Easy
TTITLE1=Anthony Gomes - Your Mama Wants to Do Me
TTITLE2=Dave Meniketti - Say Goodbye
TTITLE3=Sakis Dovolis Trio - Cross The Line
TTITLE4=Dead West - Whiskey, Women And Song
TTITLE5=George Hotte Miller - Evil Woman
TTITLE6=Fantastic Negrito - Plastic Hamburgers
TTITLE7=Kirk Fletcher - Times Ticking
TTITLE8=Brian Ames With David Danced Collective - John The Revelator
TTITLE9=BloYaTop - Catch Me If You Can
TTITLE10=Ryan McGarvey - Who Would've Thought
TTITLE11=Gus Moore and Jack Moore - This Ones For You
TTITLE12=Sean Chambers - Cherry Red Wine
TTITLE13=David Gogo - Too Good to Be True
TTITLE14=Too Slim and The Taildraggers - Wash My Hands
TTITLE15=The Voodoo Hoodoo Blues Club - Blinded By Fear
TTITLE16=The D.B. Walker Band - Coming Down
EXTD=
EXTT0=
EXTT1=
EXTT2=
EXTT3=
EXTT4=
EXTT5=
EXTT6=
EXTT7=
EXTT8=
EXTT9=
EXTT10=
EXTT11=
EXTT12=
EXTT13=
EXTT14=
EXTT15=
EXTT16=
PLAYORDER=
